<?xml version="1.0" encoding="UTF-8"?>
<svg width="44px" height="44px" viewBox="0 0 44 44" version="1.1" xmlns="http://www.w3.org/2000/svg" xmlns:xlink="http://www.w3.org/1999/xlink">
    <title>Fill@1x</title>
    <defs>
        <linearGradient x1="85.1231098%" y1="15.6939197%" x2="61.780513%" y2="74.1131605%" id="linearGradient-1">
            <stop stop-color="#4C89FF" offset="0%"></stop>
            <stop stop-color="#6B54AC" offset="100%"></stop>
        </linearGradient>
    </defs>
    <g id="Page-1" stroke="none" stroke-width="1" fill="none" fill-rule="evenodd">
        <g id="10.10-•-Wizard---Contact-Info" transform="translate(-706.000000, -261.000000)" fill="url(#linearGradient-1)">
            <path d="M709.142857,261 L706,261 L706,301.857143 C706,303.592895 707.407105,305 709.142857,305 L750,305 L750,301.857143 L709.142857,301.857143 L709.142857,261 Z M750,272 L739.208333,272 L739.208333,275.142857 L744.742917,275.142857 L733.041667,287.07 L726.427917,280.312857 C726.138443,280.015366 725.7444,279.848031 725.333333,279.848031 C724.922267,279.848031 724.528224,280.015366 724.23875,280.312857 L713,291.784286 L715.17375,294 L725.333333,283.644286 L731.947083,290.401429 C732.236557,290.69892 732.6306,290.866255 733.041667,290.866255 C733.452733,290.866255 733.846776,290.69892 734.13625,290.401429 L746.916667,277.358571 L746.916667,283 L750,283 L750,272 Z" id="Fill"></path>
        </g>
    </g>
</svg>